<!-- Generated by IcoMoon.io -->
<svg version="1.1" xmlns="http://www.w3.org/2000/svg" width="32" height="32" viewBox="0 0 32 32">
<title>envelope</title>
<path fill="#757575" d="M29 4h-26c-1.654 0-3 1.346-3 3v18c0 1.654 1.346 3 3 3h26c1.654 0 3-1.346 3-3v-18c0-1.654-1.346-3-3-3zM29 6c0.138 0 0.27 0.029 0.39 0.080l-0.006-0.002-13.383 11.599-13.383-11.599c0.113-0.049 0.245-0.077 0.383-0.077h26zM29 26h-26c-0.552-0-1-0.448-1-1v-16.81l13.345 11.566c0.174 0.152 0.403 0.244 0.654 0.244 0 0 0.001 0 0.001 0h-0c0 0 0.001 0 0.001 0 0.251 0 0.48-0.092 0.655-0.245l-0.001 0.001 13.345-11.566v16.81c0 0.552-0.448 1-1 1z"></path>
</svg>
