<!-- Generated by IcoMoon.io -->
<svg version="1.1" xmlns="http://www.w3.org/2000/svg" width="32" height="32" viewBox="0 0 32 32">
<title>phone-black-18dp-1</title>
<path d="M24.882 19.773l-3.268-0.373c-0.090-0.011-0.193-0.017-0.299-0.017-0.708 0-1.348 0.287-1.812 0.751l-2.367 2.367c-3.641-1.853-6.626-4.825-8.478-8.478l2.38-2.38c0.464-0.464 0.751-1.104 0.751-1.812 0-0.105-0.006-0.209-0.019-0.311l0.001 0.012-0.373-3.242c-0.154-1.288-1.24-2.277-2.558-2.277-0.001 0-0.002 0-0.003 0h-2.226c-1.454 0-2.663 1.209-2.573 2.663 0.682 10.987 9.469 19.761 20.443 20.443 1.454 0.090 2.663-1.119 2.663-2.573v-2.226c0.013-1.3-0.965-2.393-2.264-2.547z"></path>
</svg>
